<?xml version="1.0" encoding="UTF-8" standalone="no"?>
<svg
   xmlns:dc="http://purl.org/dc/elements/1.1/"
   xmlns:cc="http://creativecommons.org/ns#"
   xmlns:rdf="http://www.w3.org/1999/02/22-rdf-syntax-ns#"
   xmlns:svg="http://www.w3.org/2000/svg"
   xmlns="http://www.w3.org/2000/svg"
   xmlns:sodipodi="http://sodipodi.sourceforge.net/DTD/sodipodi-0.dtd"
   xmlns:inkscape="http://www.inkscape.org/namespaces/inkscape"
   id="svg8"
   version="1.1"
   viewBox="0 0 8.4666661 8.4666661"
   height="31.999998"
   width="31.999998"
   sodipodi:docname="favicon.svg"
   inkscape:version="0.92.3 (unknown)">
  <sodipodi:namedview
     pagecolor="#ffffff"
     bordercolor="#666666"
     borderopacity="1"
     objecttolerance="10"
     gridtolerance="10"
     guidetolerance="10"
     inkscape:pageopacity="0"
     inkscape:pageshadow="2"
     inkscape:window-width="1920"
     inkscape:window-height="1025"
     id="namedview8"
     showgrid="false"
     fit-margin-top="0"
     fit-margin-left="0"
     fit-margin-right="0"
     fit-margin-bottom="0"
     units="px"
     inkscape:zoom="16.230769"
     inkscape:cx="9.3104264"
     inkscape:cy="14.904584"
     inkscape:window-x="0"
     inkscape:window-y="27"
     inkscape:window-maximized="1"
     inkscape:current-layer="svg8" />
  <defs
     id="defs2" />
  <metadata
     id="metadata5">
    <rdf:RDF>
      <cc:Work
         rdf:about="">
        <dc:format>image/svg+xml</dc:format>
        <dc:type
           rdf:resource="http://purl.org/dc/dcmitype/StillImage" />
        <dc:title></dc:title>
      </cc:Work>
    </rdf:RDF>
  </metadata>
  <circle
     id="path3719"
     cx="4.2333331"
     cy="4.2333331"
     style="fill:#ffffff;stroke-width:0.13229166"
     r="4.2333331" />
  <g
     aria-label="G"
     style="font-style:normal;font-variant:normal;font-weight:normal;font-stretch:normal;font-size:10.27508068px;line-height:1.25;font-family:'Amiri Quran Colored';-inkscape-font-specification:'Amiri Quran Colored';letter-spacing:0px;word-spacing:0px;fill:#000000;fill-opacity:1;stroke:none;stroke-width:0.25687701"
     id="text3723">
    <path
       id="path9"
       style="font-style:normal;font-variant:normal;font-weight:normal;font-stretch:normal;font-family:'Abril Fatface';-inkscape-font-specification:'Abril Fatface';stroke-width:0.25687701"
       d="m 4.4850573,7.7319979 q 0.503479,0 0.637055,-0.1849514 Q 5.2659634,7.362095 5.2659634,6.9202666 V 4.9269009 H 4.6083583 V 4.7008491 H 7.5675815 V 4.9269009 H 7.1668534 V 7.8244737 H 7.0127272 Q 6.8277757,7.5675966 6.488698,7.5675966 q -0.1438511,0 -0.8631067,0.1849515 -0.7089806,0.1849515 -1.2124596,0.1849515 -1.6748381,0 -2.5995954,-0.9042071 -0.91448215,-0.9042071 -0.91448215,-2.7126213 0,-1.8186893 0.95558255,-2.8050971 0.9658575,-0.98640772 2.5893203,-0.98640772 0.6267799,0 1.2535598,0.16440129 0.637055,0.15412621 0.7398058,0.15412621 0.1027508,0 0.1541262,-0.0411003 0.051375,-0.0513754 0.1130259,-0.16440129 H 6.8175006 L 6.8997013,2.8718848 H 6.7147498 Q 6.2112709,1.875202 5.6975168,1.3100725 5.1940379,0.73466799 4.567258,0.73466799 q -1.5720874,0 -1.5720874,3.07224911 v 0.8117314 q 0,1.5412621 0.380178,2.3324433 0.3904531,0.7809061 1.1097087,0.7809061 z" />
  </g>
</svg>
