<?xml version="1.0" encoding="UTF-8" standalone="no"?>
<svg
   xmlns:dc="http://purl.org/dc/elements/1.1/"
   xmlns:cc="http://creativecommons.org/ns#"
   xmlns:rdf="http://www.w3.org/1999/02/22-rdf-syntax-ns#"
   xmlns:svg="http://www.w3.org/2000/svg"
   xmlns="http://www.w3.org/2000/svg"
   id="svg8"
   version="1.1"
   viewBox="0 0 38.180027 7.4083328"
   height="7.4083328mm"
   width="38.180027mm">
  <defs
     id="defs2" />
  <metadata
     id="metadata5">
    <rdf:RDF>
      <cc:Work
         rdf:about="">
        <dc:format>image/svg+xml</dc:format>
        <dc:type
           rdf:resource="http://purl.org/dc/dcmitype/StillImage" />
        <dc:title></dc:title>
      </cc:Work>
    </rdf:RDF>
  </metadata>
  <g
     transform="translate(-63.486002,-125.65584)"
     id="layer1">
    <g
       id="text12"
       style="font-style:normal;font-variant:normal;font-weight:normal;font-stretch:normal;font-size:9.74780655px;line-height:1.25;font-family:'Abril Fatface';-inkscape-font-specification:'Abril Fatface';letter-spacing:0px;word-spacing:0px;fill:#000000;fill-opacity:1;stroke:none;stroke-width:0.24369518"
       aria-label="Gashkov">
      <path
         d="m 96.480194,128.50219 v -0.17546 h 2.914594 v 0.17546 h -0.614112 l 1.169737,3.23628 1.052767,-3.23628 h -0.65311 v -0.17546 h 1.31596 v 0.17546 h -0.42891 l -1.442672,4.4645 h -1.11125 l -1.803344,-4.4645 z m -1.79923,2.54418 v -0.82856 q 0,-0.94554 -0.107226,-1.37444 -0.09748,-0.43865 -0.467895,-0.43865 -0.214452,0 -0.350921,0.12672 -0.126721,0.11697 -0.185208,0.39966 -0.08773,0.43865 -0.08773,1.33545 v 0.76033 q 0,1.06251 0.05849,1.27696 0.06824,0.21445 0.13647,0.35092 0.107226,0.23395 0.419155,0.23395 0.380165,0 0.497138,-0.43865 0.08773,-0.31193 0.08773,-1.40369 z m -0.604364,2.0178 q -1.218476,0 -1.842336,-0.62386 -0.623859,-0.62386 -0.623859,-1.78385 0,-1.16974 0.662851,-1.7936 0.672598,-0.6336 1.881326,-0.6336 1.208728,0 1.803344,0.58486 0.594617,0.57513 0.594617,1.76436 0,2.48569 -2.475943,2.48569 z m -5.144407,-0.0975 v -0.17546 h 0.448399 l -1.101502,-2.26149 -0.185208,0.0487 v 2.21275 h 0.448399 v 0.17546 h -2.79762 v -0.17546 h 0.536129 v -6.95993 h -0.575121 v -0.17546 h 2.388213 v 4.72768 l 0.155965,-0.0585 2.193256,-1.82284 h -0.916294 v -0.17546 h 1.920318 v 0.17546 h -0.682346 l -1.159989,0.98453 1.68637,3.30451 h 0.350921 v 0.17546 z m -9.184717,-7.31085 h 2.349221 v 3.56769 q 0.155965,-0.4484 0.477643,-0.72134 0.321677,-0.27293 0.97478,-0.27293 1.51091,0 1.51091,1.62788 v 2.93409 h 0.545878 v 0.17546 h -2.75863 v -0.17546 h 0.39966 v -3.16804 q 0,-0.58487 -0.07798,-0.75058 -0.07798,-0.17546 -0.282687,-0.17546 -0.311929,0 -0.555624,0.40941 -0.233948,0.40941 -0.233948,0.99427 v 2.6904 h 0.419156 v 0.17546 h -2.768377 v -0.17546 h 0.536129 v -6.95993 h -0.536129 z m -4.002389,7.40833 v -1.74486 h 0.116974 q 0.253443,0.84806 0.682346,1.18923 0.428904,0.34118 1.072259,0.34118 0.994276,0 0.994276,-0.63361 0,-0.27294 -0.243695,-0.40941 -0.380164,-0.21445 -0.974781,-0.33142 -0.66285,-0.17546 -1.11125,-0.4679 -0.536129,-0.35092 -0.536129,-1.11125 0,-0.76033 0.467895,-1.20873 0.467895,-0.45814 1.247719,-0.45814 0.477643,0 0.984528,0.2242 0.185209,0.078 0.282687,0.078 0.09748,0 0.165713,-0.0682 0.06823,-0.0682 0.165712,-0.25344 h 0.107226 v 1.49141 h -0.116974 q -0.497138,-1.26721 -1.540153,-1.26721 -0.458147,0 -0.682346,0.16571 -0.2242,0.15597 -0.2242,0.39966 0,0.14622 0.06823,0.23395 0.06823,0.078 0.107226,0.11697 0.03899,0.039 0.126721,0.0877 0.08773,0.039 0.146217,0.0682 0.05849,0.0195 0.175461,0.0585 0.126721,0.039 0.185208,0.0487 0.662851,0.16572 0.955285,0.29244 0.292434,0.11697 0.555625,0.29243 0.536129,0.37042 0.536129,1.19898 0,0.81882 -0.48739,1.24772 -0.48739,0.41916 -1.335449,0.41916 -0.604364,0 -1.169737,-0.28269 -0.116974,-0.078 -0.185209,-0.078 -0.214451,0 -0.419155,0.36067 z m -3.234596,-2.38821 h 0.282686 v -0.75059 q 0,-0.92604 -0.107226,-1.23797 -0.09748,-0.32167 -0.389912,-0.32167 -0.17546,0 -0.321677,0.0975 -0.13647,0.0877 -0.13647,0.25345 0,0.15596 0.05849,0.32167 h 0.243695 q 0.07798,0.20471 0.07798,0.49714 0,0.28269 -0.243695,0.49714 -0.243696,0.2047 -0.614112,0.2047 -0.838312,0 -0.838312,-0.80906 0,-1.19898 2.037292,-1.19898 1.159989,0 1.59864,0.39966 0.448399,0.38991 0.448399,1.44267 v 1.97881 q 0,0.50688 0.282687,0.50688 0.331425,0 0.389912,-1.00402 l 0.146217,0.01 q -0.03899,0.8578 -0.321678,1.17948 -0.282686,0.32168 -0.926041,0.32168 -1.169737,0 -1.345197,-0.72134 -0.126722,0.37042 -0.380165,0.54588 -0.253443,0.17546 -0.740833,0.17546 -1.442676,0 -1.442676,-1.17949 0,-0.69209 0.545878,-0.94553 0.555625,-0.26319 1.696118,-0.26319 z m -0.389912,1.19898 q 0,0.50688 0.04874,0.6531 0.05849,0.14622 0.204704,0.14622 0.155965,0 0.282686,-0.2437 0.136469,-0.25344 0.136469,-0.69209 v -0.90655 h -0.06823 q -0.604364,0 -0.604364,0.88705 z m -5.232593,0.99427 q 0.477643,0 0.604364,-0.17546 0.13647,-0.17546 0.13647,-0.59461 v -1.89108 h -0.62386 v -0.21445 h 2.807368 v 0.21445 h -0.380164 v 2.74888 h -0.146217 q -0.175461,-0.24369 -0.497138,-0.24369 -0.13647,0 -0.818816,0.17546 -0.672599,0.17546 -1.150241,0.17546 -1.588893,0 -2.466195,-0.85781 -0.867555,-0.85781 -0.867555,-2.57342 0,-1.72536 0.906546,-2.66115 0.916294,-0.93579 2.456447,-0.93579 0.594616,0 1.189233,0.15596 0.604364,0.14622 0.701842,0.14622 0.09748,0 0.146217,-0.039 0.04874,-0.0487 0.107226,-0.15596 h 0.107225 l 0.07798,2.11527 H 69.00326 q -0.477642,-0.94554 -0.965032,-1.48167 -0.477643,-0.54587 -1.072259,-0.54587 -1.491415,0 -1.491415,2.91459 v 0.77008 q 0,1.46217 0.360669,2.21275 0.370417,0.74083 1.052763,0.74083 z"
         style="font-style:normal;font-variant:normal;font-weight:normal;font-stretch:normal;font-family:'Abril Fatface';-inkscape-font-specification:'Abril Fatface';stroke-width:0.24369518"
         id="path110" />
    </g>
  </g>
</svg>
